<?xml version="1.0" encoding="utf-8"?>
<!-- Generator: Adobe Illustrator 16.0.0, SVG Export Plug-In . SVG Version: 6.00 Build 0)  -->
<!DOCTYPE svg PUBLIC "-//W3C//DTD SVG 1.1//EN" "http://www.w3.org/Graphics/SVG/1.1/DTD/svg11.dtd">
<svg version="1.1" xmlns="http://www.w3.org/2000/svg" xmlns:xlink="http://www.w3.org/1999/xlink" x="0px" y="0px" width="1600px"
	 height="230px" viewBox="0 0 1600 230" enable-background="new 0 0 1600 230" xml:space="preserve">
<g id="Camada_3">
</g>
<g id="Camada_1">
	<path fill="#FFFFFF" d="M109.125,48l-18.194,87.625c0,0-32.943,0.497-35.806,3.25s-9,12.625-0.25,23.5
		c5.563,6.914,7.357,7.137,7.357,7.137s-9.293,22.638,11.518,28.363c11.125,3.061,15.893-6.849,20.248-9.871
		c1.627-1.129,157.096,0.75,157.096,0.75l8.848-32.326L288,188l48.09,0.5L364,62.25L344.539,43H299l-13-9l-4,15.375l-10.875,3.5
		L249.875,33h-5L242.5,46.125L109.125,48z"/>
</g>
<g id="Camada_2">
	<g transform="translate(0.000000,230.000000) scale(0.100000,-0.100000)">
		<path fill="#FFFFFF" d="M840.542,2281.504c-178.994-32.002-268.994-88.999-320-206.001c-28.994-63.999-50.996-141.001-215-735
			c-72.002-260.991-142.002-513.003-155-559.995c-92.002-325.996-125-452.012-125-477.012c0-35,31.006-120,60-167.988
			c32.002-52.012,75-80,164.004-109.004L328.54,0.508h7386.005c7286.001,0,7386.997,0.996,7474.009,20
			c48.984,10.996,116.992,34.004,151.992,50.996c79.003,39.004,166.991,128.008,199.999,203.008
			c14.004,30.996,111.992,410,219.004,842.988c107.988,433.003,200,802.002,205.996,819.004c15,46.001,11.992,71.997-15.996,147.998
			c-44.004,113.003-107.012,162.002-254.004,197.002c-71.992,17.998-396.991,17.998-7414.999,17.998
			C1305.542,2298.501,935.542,2297.505,840.542,2281.504z M15607.537,2140.503c62.012-6.001,112.012-17.002,136.016-28.999
			c95.996-48.999,96.992-118.003,5.996-476.001c-35.996-142.998-119.004-473.999-184.004-734.995
			c-65.996-260.996-129.004-494.004-140-517.012c-40.996-88.984-136.991-166.992-253.007-205.996l-61.992-21.992l-7335.005-2.012
			c-4477.997-1.992-7360.995,1.016-7402.997,6.016c-85,11.992-135,36.992-159.004,81.992
			c-37.998,66.992-26.992,114.004,212.002,937.998c122.002,420,231.006,783.999,242.002,808.003
			c27.002,57.998,84.004,105,155,128.999c55.996,17.998,102.002,18.999,1282.998,23.999
			C4375.542,2149.502,15507.537,2149.502,15607.537,2140.503z"/>
		<path fill="#FFFFFF" d="M7386.547,1393.501c-19.004-92.998-35-168.999-37.002-170.996c-0.996-2.002-17.002,12.998-35.996,32.998
			c-81.006,88.999-239.004,43.999-326.006-92.998c-62.998-96.997-82.002-276.997-35.996-339.009
			c67.998-90.996,190.996-96.992,282.002-12.988c17.998,15.996,35.996,30,38.994,30s2.002-15.996-0.996-35l-7.002-35h75.996
			c41.006,0,75,0.996,75,2.988c0,1.016,36.006,175,80,386.006c44.004,212.002,80,388.003,80,393.003c0,3.999-35,7.998-77.998,7.998
			h-77.002L7386.547,1393.501z M7307.543,1130.508c21.006-25,22.998-80.996,7.002-130.996c-32.002-95-140-138.008-199.004-79.004
			c-46.992,46.992-8.994,185.996,61.006,222.993C7220.542,1166.504,7283.549,1160.503,7307.543,1130.508z"/>
		<path fill="#FFFFFF" d="M11000.546,1528.501c-6.992-18.999-145.996-686.001-151.992-730.005l-6.016-37.988h76.016
			c62.988,0,75.996,2.988,80.996,17.988c2.988,9.004,15,64.004,26.992,122.012c40,195,74.004,249.995,153.008,249.995
			c26.992,0,40-5.996,51.992-24.995c15.996-24.004,15-34.004-15-183.008c-16.992-85.996-30.996-162.988-30.996-169.004
			c0-15,145-18.984,154.004-3.984c11.992,18.984,75.996,345.996,75.996,386.992c0,77.998-28.008,110-111.992,130
			c-41.016,8.999-129.004-21.001-176.016-62.002c-40.996-35-42.988-35-36.992-11.001c4.004,14.004,20.996,93.003,39.004,176.001
			l32.988,151.001h-78.984C11029.55,1540.503,11003.554,1536.504,11000.546,1528.501z"/>
		<path fill="#FFFFFF" d="M12695.546,1370.503l-35-170l-30,35c-66.992,80-199.004,63.999-289.004-36.001
			c-75-82.002-115.996-222.002-95-322.002c29.004-134.004,177.012-175.996,288.008-80.996
			c20.996,19.004,41.992,34.004,45.996,34.004s4.004-15.996,0.996-35l-6.992-35h70c37.988,0,72.988,4.004,75.996,10
			c5,7.988,165,749.995,165,764.995c0,2.998-35,5-78.008,5h-77.988L12695.546,1370.503z M12584.55,1139.512
			c16.992-6.016,35.996-19.004,40.996-29.004c15.996-29.004,10.996-90.996-9.004-135.996
			c-26.992-59.004-62.988-84.004-121.992-84.004c-39.004,0-50.996,4.004-68.008,25.996c-47.988,60.996-5.996,185,74.004,220
			C12537.538,1152.505,12544.55,1153.501,12584.55,1139.512z"/>
		<path fill="#FFFFFF" d="M4254.545,1511.504c-175.996-68.999-309.004-266.001-309.004-458.008
			c0-128.984,44.004-215,136.006-268.984c65-38.008,175-43.008,263.994-12.012l65,23.008l16.006,75
			c7.998,40.996,17.998,90,22.002,107.988l6.992,33.008l-32.998-24.004c-80-60.996-162.998-75-222.998-37.988
			c-82.002,50-85.996,199.99-7.002,310.991c77.002,107.002,219.004,130,287.998,47.998c14.004-16.997,27.002-28.999,29.004-26.997
			c0.996,1.997,10.996,41.997,20,88.999c10,47.002,20,92.998,22.002,102.998C4566.547,1523.501,4355.542,1551.504,4254.545,1511.504
			z"/>
		<path fill="#FFFFFF" d="M9270.546,1478.501c-3.008-12.998-31.992-150.996-65-307.998c-33.008-157.007-65-303.999-70-327.007
			c-20-83.984-20.996-82.988,75-82.988c80,0,85,0.996,90,22.988c10,44.004,55,259.004,55,262.012
			c0,2.988,50.996,5.996,113.008,6.992l111.992,3.008l10.996,45c5.996,25,14.004,59.995,17.012,77.993l6.992,32.002h-110
			c-123.008,0-118.008-3.999-98.008,78.999l11.016,51.001h118.984c114.004,0,118.008,1.001,123.008,22.998
			c16.992,73.003,25,113.003,25,125c0,9.004-46.992,12.002-205,12.002C9276.542,1500.503,9275.546,1500.503,9270.546,1478.501z"/>
		<path fill="#FFFFFF" d="M4767.543,1274.502c-85-41.997-137.998-116.001-167.998-236.006c-20-75-14.004-171.992,10.996-215.996
			c52.002-86.992,179.004-95,281.006-16.992c42.002,31.992,47.998,30.996,40.996-5l-5.996-30h73.994
			c62.002,0,74.004,2.988,79.004,17.988c5,18.008,95.996,457.007,99.004,479.004c1.992,11.001-16.006,13.003-73.008,13.003h-75
			l-5.996-30c-9.004-45-15-46.504-35-11.504C4951.547,1303.003,4856.547,1318.501,4767.543,1274.502z M4959.545,1139.512
			c22.002-18.008,25.996-28.008,25.996-75c0-97.012-55.996-164.004-137.998-164.004c-88.994,0-118.994,76.992-70.996,177.988
			C4814.545,1155.503,4901.547,1184.502,4959.545,1139.512z"/>
		<path fill="#FFFFFF" d="M5464.545,1286.504c-85-30-139.004-101.001-139.004-184.004c0-57.988,29.004-86.992,120-120
			c60-21.992,76.006-31.992,78.008-50c5.996-37.988-15-51.992-77.002-51.992c-46.006,0-66.006,5.996-104.004,30l-47.998,30
			l-30-62.012l-29.004-62.988l21.006-18.008c62.002-50,223.994-60,305.996-19.004c87.998,45,140,152.012,109.004,225
			c-15,36.016-74.004,75-137.998,91.016c-27.002,5.996-58.008,30.996-58.008,45.991c0,41.001,91.006,52.998,155,20
			c22.002-11.001,40-20,42.002-20c7.998,0,54.004,103.999,50,113.999c-7.002,18.003-113.994,46.001-172.998,46.001
			C5522.543,1299.502,5484.545,1293.501,5464.545,1286.504z"/>
		<path fill="#FFFFFF" d="M6027.543,1287.505c-117.002-44.004-202.998-191.997-202.998-350.005
			c-0.996-119.004,57.998-186.992,160.996-186.992c51.006,0,116.006,26.992,144.004,59.004c27.998,30.996,47.002,26.992,40-9.004
			l-5.996-30h73.994h74.004l48.994,232.988c27.002,127.012,50,242.007,53.008,255.005c3.994,21.001,1.992,22.002-71.006,22.002h-75
			l-7.002-30c-3.994-16.001-7.998-30-10.996-30c-2.002,0-19.004,17.002-37.002,37.002c-30.996,32.998-40,36.997-92.998,40
			C6087.543,1298.501,6045.542,1294.502,6027.543,1287.505z M6195.542,1142.505c49.004-40.005,31.006-164.009-30.996-216.997
			c-32.998-27.012-102.002-35-139.004-15c-41.992,21.992-42.998,125-2.998,186.992
			C6060.542,1155.503,6150.542,1179.502,6195.542,1142.505z"/>
		<path fill="#FFFFFF" d="M7810.541,1276.504c-173.994-81.001-250.996-404.004-117.998-500c60-44.004,177.002-26.992,244.004,35
			c17.002,15.996,32.998,29.004,35.996,29.004s2.998-15.996,0-35l-5.996-35h73.999c69.004,0,75,1.992,80,22.988
			c5.996,25,94.004,454.004,98.008,474.004c0.996,11.001-16.016,13.003-73.008,13.003h-75l-5.996-30c-9.004-45-15-46.504-35-11.504
			C7992.543,1302.007,7898.549,1318.501,7810.541,1276.504z M8000.541,1135.508c46.997-45.996,29.009-155-33.994-208.008
			c-46.006-37.988-120-39.004-150-0.996c-42.002,54.004-12.002,175,52.998,214.995
			C7914.545,1168.501,7970.541,1166.504,8000.541,1135.508z"/>
		<path fill="#FFFFFF" d="M8513.554,1290.503c-87.012-26.001-148.008-102.002-148.008-183.003c0-62.988,26.992-90.996,120-125
			c60-21.992,75.996-31.992,78.008-50c5.996-37.988-15-51.992-75-51.992c-53.008,0-100,16.992-136.016,47.988
			c-8.984,8.008-17.988,13.008-20,11.016c-10-17.012-56.992-121.016-56.992-128.008c0-5,24.004-19.004,53.008-31.992
			c73.984-33.008,212.988-34.004,273.984-2.012c55,30,99.004,85.996,113.008,143.008c20.996,85.996-15,130.996-133.008,169.004
			c-36.992,12.988-66.992,35-66.992,50.991c0,41.001,90.996,52.998,155,20c21.992-11.001,40-20,41.992-20
			c8.008,0,54.004,103.999,50,113.999C8749.55,1286.504,8580.546,1310.503,8513.554,1290.503z"/>
		<path fill="#FFFFFF" d="M9964.55,1276.504c-149.004-40-253.008-175-254.004-330.996c0-124.004,79.004-197.012,214.004-198.008
			c85-0.996,159.004,24.004,205,69.004c20,19.004,35.996,38.008,35.996,43.008c0,3.984-21.992,17.988-48.008,30l-47.988,22.988
			l-39.004-25.996c-54.004-36.992-125-36.992-155,0.996c-13.008,17.012-20,38.008-18.008,57.012l3.008,30.996l179.004,5l180,5
			l7.988,30c11.016,35.996,3.008,136.997-12.988,167.993c-23.008,44.004-64.004,78.003-113.008,92.002
			C10043.554,1293.501,10025.546,1293.501,9964.55,1276.504z M10040.546,1174.502c20-7.998,48.008-62.002,40.996-79.99
			c-4.004-11.016-26.992-14.004-95.996-14.004c-99.004,0-106.992,5.996-69.004,54.004
			C9947.538,1174.502,9998.554,1190.503,10040.546,1174.502z"/>
		<path fill="#FFFFFF" d="M10606.542,1280.503c-91.992-18.999-171.992-87.998-220-189.995
			c-21.992-45.996-25.996-69.004-25.996-140.996c0-76.016,3.008-90,26.992-126.016c14.004-21.992,43.008-47.988,65-57.988
			c47.012-23.008,134.004-24.004,184.004-2.012c34.004,14.004,38.008,20,52.012,83.008c8.984,38.008,13.984,70,11.992,71.992
			c-1.992,2.012-14.004-2.988-26.992-11.992c-25-18.008-89.004-20.996-117.012-5.996c-41.992,21.992-50,104.004-15.996,170
			c36.992,70.991,121.992,100.996,175,61.992l28.008-20.996l11.992,51.997c5.996,28.003,13.008,61.001,15.996,73.003
			c4.004,16.001-0.996,23.999-22.988,31.997C10705.546,1285.503,10654.55,1289.502,10606.542,1280.503z"/>
		<path fill="#FFFFFF" d="M11762.538,1276.504c-61.992-17.002-113.984-58.999-155-127.002c-40-66.006-51.992-104.99-58.984-192.002
			c-10-114.004,32.988-189.004,115.996-207.988c55.996-12.012,121.992,5,176.992,46.992c24.004,19.004,45,34.004,47.012,34.004
			c1.992,0,0.996-15.996-1.016-35l-3.984-35h70c58.984,0,71.992,2.988,75.996,17.988c2.988,9.004,25.996,116.016,50.996,237.012
			s48.008,227.993,50.996,237.993c5,15-2.988,17.002-70,17.002c-74.004,0-75.996-1.001-81.992-27.002
			c-10.996-45.996-15-45.996-45.996-8.999c-17.012,21.001-44.004,38.999-66.016,46.001
			C11822.538,1292.505,11822.538,1292.505,11762.538,1276.504z M11912.538,1126.504c23.008-20,28.008-31.992,28.008-68.008
			c0-58.984-30.996-123.984-70-147.988c-44.004-27.012-105-25.996-134.004,0.996c-20,19.004-22.988,29.004-19.004,83.008
			c4.004,71.992,33.008,120,82.012,141.992C11845.546,1156.504,11881.542,1153.501,11912.538,1126.504z"/>
		<path fill="#FFFFFF" d="M14300.546,1272.505c-95-33.003-154.004-97.002-191.992-206.001c-25-73.008-24.004-200,1.992-245
			c33.008-55.996,65.996-74.004,133.008-74.004c60,0,128.984,29.004,161.992,67.012c20.996,25.996,29.004,17.988,23.008-19.004
			l-6.016-35.996l73.008,2.988l74.004,3.008l46.992,230c27.012,126.992,50.996,239.995,54.004,252.993
			c5,21.001,3.008,22.002-69.004,22.002h-75l-6.992-35c-7.012-42.002-15.996-43.999-34.004-8.999
			C14456.542,1279.502,14376.542,1299.502,14300.546,1272.505z M14439.55,1139.512c71.992-33.008,49.004-191.016-34.004-234.004
			c-43.008-22.012-99.004-19.004-126.992,6.992c-18.008,17.012-23.008,32.012-23.008,72.012
			C14256.542,1098.496,14352.538,1178.501,14439.55,1139.512z"/>
		<path fill="#FFFFFF" d="M14957.538,1271.504c-90-31.001-141.992-97.002-141.992-180c0-55.996,30-85.996,120-119.004
			c80.996-30,95-49.004,63.008-84.004c-27.012-30-116.016-21.992-173.008,16.016c-23.008,15-43.008,25.996-44.004,23.984
			c-11.992-23.984-55.996-120-55.996-123.984c0-3.008,25-17.012,55.996-31.016c67.012-30.996,185.996-35.996,244.004-10.996
			c81.992,35,139.004,113.008,140,190c0,52.012-35.996,90-111.992,118.008c-93.008,34.004-106.016,50-71.016,84.995
			c20,21.001,101.016,15,139.004-10c13.008-8.003,27.012-14.995,32.012-14.995c3.984,0,20,24.995,35,54.995l26.992,56.001l-35,15
			c-36.992,15-124.004,33.999-154.004,33.999C15017.538,1289.502,14986.542,1281.504,14957.538,1271.504z"/>
		<path fill="#FFFFFF" d="M13935.546,1264.502c-19.004-7.998-51.992-31.997-74.004-51.997l-39.004-37.002l7.012,47.998l5.996,47.002
			h-75c-69.004,0-75-2.002-80-22.002c-3.008-12.998-26.992-126.001-54.004-251.001c-35-166.992-45-230-35.996-232.988
			c6.992-3.008,43.008-4.004,80.996-2.012l69.004,3.008l26.992,127.988c15,73.008,36.016,143.008,49.004,164.004
			c28.008,45,97.012,78.008,148.008,69.004l35.996-5l19.004,61.997c10,34.004,20.996,70,22.988,80
			c4.004,14.004-0.996,17.002-32.988,17.002C13987.538,1279.502,13954.55,1272.505,13935.546,1264.502z"/>
		<path fill="#FFFFFF" d="M13010.546,1248.501c-28.008-118.989-65-315.005-65-346.001c0-114.004,113.008-177.988,266.992-150.996
			c105,18.008,187.012,91.992,214.004,193.008c13.008,46.992,69.004,306.992,69.004,317.993c0,5-35,7.998-78.008,7.998h-76.992
			l-28.008-133.003c-37.988-181.992-45-205.996-71.992-232.988c-30-30-94.004-33.008-118.008-6.016
			c-22.988,25-21.992,47.012,13.008,210c16.992,78.008,30,146.006,30,152.007s-30.996,10-75,10
			C13021.542,1270.503,13015.546,1268.501,13010.546,1248.501z"/>
	</g>
	<g transform="translate(0.000000,176.000000) scale(0.100000,-0.100000)">
		<path d="M2419.345,1397.91l-2.998-72.998l-675-5l-673.999-5l-88.003-430c-47.998-236.001-90-435-91.997-442.002
			c-3.999-10-41.001-12.998-143.003-12.998c-130.996,0-140-2.002-187.998-27.998c-61.001-32.998-75-59.004-75-142.998
			c0-57.002,3.999-71.006,28.999-106.006c16.001-22.002,41.001-48.994,56.001-60.996c25-20,26.001-22.998,16.001-74.004
			c-13.999-78.994,1.001-135.996,51.997-193.994c22.002-26.006,56.001-53.008,74.004-60c75.996-32.002,173.999-4.004,215.996,60.996
			c16.001,27.002,27.002,34.004,42.002,30c21.001-5,1555.996-7.002,1562.002-2.002c0.996,2.002,17.002,72.002,35,155
			c17.002,85,35.996,151.006,42.002,149.004c5-2.002,63.994-70,130.996-152.998l120.996-149.004h264.004h265l10.996,55
			c7.012,30,37.012,177.002,69.004,325c30.996,149.004,88.008,416.001,125.996,595l70,325l-107.988,102.002l-108.008,101.997
			l-237.998,1.001h-237.998l-60,57.002c-68.008,65-71.006,63.999-89.004-27.002c-27.002-132.002-25.996-130-74.004-130
			c-46.992,0-55,6.001-195.996,162.998c-37.998,42.002-47.002,47.002-85.996,47.002h-43.008L2419.345,1397.91z M2603.349,1303.911
			c57.002-63.999,105-120,105.996-125c2.002-5-287.998-8.999-715-8.999h-717.998l-57.998,47.998l-59.004,47.002l649.004,5l647.998,5
			l2.998,72.998C2463.349,1449.912,2477.344,1445.913,2603.349,1303.911z M3005.351,1260.913
			c95-96.001,125.996-133.999,121.992-148.003c-2.988-10-65.996-273.999-140.996-587.998
			c-74.004-314.004-137.002-574.004-137.998-579.004c-5-15-227.002,264.004-227.002,284.004c0,29.004,32.002,174.004,40.996,184.004
			c18.008,20,26.006-5,17.002-49.004l-10-45.996l72.002-93.008c85-112.998,107.002-132.998,120.996-118.994
			c12.002,12.002,118.008,475,119.004,518.999c0,17.998-7.998,37.998-20,48.999c-10.996,10-20,23.999-20,32.002
			c0,15.996,5,15.996,30,2.998c12.002-7.002,20.996-6.001,27.998,2.998c15,18.003,94.004,376.001,87.002,397.002
			c-6.992,21.001-177.998,180-194.004,180c-5.996,0-15.996-12.002-21.992-27.002c-7.002-18.999-13.008-22.998-21.006-15
			c-7.002,7.002-7.002,29.004,2.998,76.001c7.002,36.001,15,66.001,19.004,66.001
			C2874.345,1389.912,2935.351,1331.914,3005.351,1260.913z M3506.347,1239.912l70-70h-205h-205.996l-68.008,68.999
			c-68.994,68.999-68.994,68.999-40,73.003c16.006,1.997,108.008,1.997,204.004,0l175-3.003L3506.347,1239.912z M1170.347,1192.91
			c31.001-25.996,58.999-48.999,63.999-52.998c4.004-2.998-27.998-166.001-71.997-361.001
			c-43.003-193.999-82.002-368.999-86.001-386.001c-7.002-32.998-25-45.996-25-17.998c0,19.004-57.002,55-87.002,55
			c-15.996,0-22.998,5.996-22.998,17.998c0,19.004,147.002,757.002,155,780C1103.349,1246.914,1110.347,1243.911,1170.347,1192.91z
			 M2858.349,1167.91c23.994-22.998,42.998-45.996,42.998-50.996c0-4.004-20.996-7.002-47.002-5
			c-42.998,2.998-47.998,5.996-50.996,27.998c-2.002,13.999-12.998,35-25,47.998l-20,22.002h27.998
			C2807.344,1209.912,2828.349,1197.91,2858.349,1167.91z M2741.347,1094.912c0-25-239.004-1159.004-250-1182.998l-10-22.998
			l-725,0.996c-397.998,0.996-727.002,5-730,10c-5,7.002,232.002,1080,240,1087.998c2.002,2.002,6.001-5.996,10-16.997
			c8.999-28.003,52.998-61.001,82.002-61.001c38.999,0,82.998,51.001,82.998,96.001c0,71.997-72.998,108.999-135,67.998
			c-25-16.001-31.001-10-18.999,20c6.001,13.999,78.999,16.001,730,16.001C2644.345,1109.912,2741.347,1107.91,2741.347,1094.912z
			 M3601.347,1097.91c0-35.996-255-1193.994-264.004-1200c-5.996-3.994-101.992-7.998-213.994-7.998
			c-155,0-204.004,2.998-207.998,12.998c-4.004,10,126.992,609.004,230,1052.002c14.004,61.001,27.998,120,30.996,132.998
			c5,22.002,5.996,22.002,215,22.002C3545.351,1109.912,3601.347,1106.914,3601.347,1097.91z M2924.345,1052.91
			c2.002-5-23.994-135.996-58.994-292.998s-63.008-285.996-64.004-287.002c0-7.002-130-2.002-130,4.004
			c0,17.998,112.002,540.996,120,560.996c7.998,19.004,17.002,22.002,69.004,22.002
			C2893.349,1059.912,2922.344,1056.914,2924.345,1052.91z M992.349,369.912c37.998-20.996,20-130.996-25-150.996
			c-21.001-10-28.999-8.008-52.002,10c-20,15.996-41.001,20.996-86.997,20.996c-59.004,0-60,0-124.004-60
			c-45.996-44.004-70.996-60-91.997-60c-45,0-91.001,62.002-91.001,124.004c0,53.994,16.001,82.998,57.002,105
			c33.999,17.998,57.998,20,215.996,20.996C899.346,379.912,980.347,375.908,992.349,369.912z M834.346,193.916
			c15-15-5.996-34.004-31.997-28.008c-32.002,8.008-35,10-26.001,23.008C783.35,200.908,824.346,203.916,834.346,193.916z
			 M1027.349,172.91c-3.003-10-12.002-48.994-21.001-87.998c-27.998-130.996-26.001-125-40-77.002
			c-13.999,46.006-62.002,122.002-76.001,122.002c-5,0-8.999,10.996-8.999,25c0,25,13.999,32.998,25,15
			c10-15.996,81.001-12.002,95,5C1018.349,194.912,1034.346,193.916,1027.349,172.91z M859.346,92.91
			C918.35,48.916,938.35-50.088,903.35-120.088c-53.003-105.996-203.003-105.996-259.004,0c-36.997,69.004-25,157.998,27.002,205
			C720.347,129.912,805.347,132.91,859.346,92.91z"/>
		<path d="M1494.346,1062.91c-6.997-1.997-15-20.996-18.999-40.996c-13.999-78.003-61.997-132.002-117.998-132.002
			c-17.002,0-36.001-3.999-42.002-7.998c-12.998-8.003-176.997-722.998-171.997-749.004c1.997-8.994,18.999-20.996,37.998-27.002
			c66.001-20,100-58.994,100-110.996c0-17.002,5-35.996,12.002-42.998c8.999-9.004,143.999-12.002,545-12.002h532.998l10,22.998
			c5,12.002,60,259.004,120.996,549.004c91.006,430.996,109.004,530.996,99.004,542.998c-10.996,12.998-84.004,15-553.999,13.999
			C1750.347,1068.911,1501.348,1065.913,1494.346,1062.91z M2551.347,997.91c0-30-210-992.002-217.002-998.994
			c-5-5-230-8.008-502.998-7.002l-492.998,2.998l-14.004,42.002c-15,42.998-80.996,112.998-107.998,112.998
			c-7.998,0-15,7.998-15,17.998c0,9.004,32.002,162.002,72.002,339.004l71.997,321.997l43.999,11.001
			c59.004,15,108.003,63.999,124.004,123.999l11.997,46.001h513.003C2442.344,1009.912,2551.347,1006.914,2551.347,997.91z"/>
		<path d="M1898.349,919.912c-133.003-22.998-262.002-125-323.003-253.999c-91.001-193.999-61.001-391.997,82.002-531.997
			c87.998-88.008,143.999-108.008,293.999-109.004c102.002,0,120.996,2.998,164.004,24.004
			c68.994,33.994,155,122.998,192.998,200.996c17.002,35.996,38.994,102.998,48.994,150c14.004,72.002,15,95.996,5,159.004
			c-18.994,123.994-72.998,220.996-158.994,286.997C2121.347,907.91,2000.346,937.91,1898.349,919.912z M2118.349,841.914
			c48.994-25,108.994-76.001,123.994-104.004c7.002-11.997-5-6.997-35,16.001c-159.995,122.002-407.998,75-523.994-98.999
			c-56.001-85-76.001-150-76.001-250c0-57.002,6.001-105.996,16.001-132.002c22.998-63.994,2.998-42.002-23.003,25
			c-31.997,80-31.997,214.004,0,294.004c47.002,120,128.999,208.999,237.002,253.999c51.001,21.001,71.001,23.999,148.999,21.001
			C2054.345,864.912,2086.347,857.91,2118.349,841.914z M2117.344,750.913c94.004-43.003,169.004-142.002,180-238.999l5-47.002
			l-25.996,50c-125.996,242.998-442.998,225-562.998-32.998c-22.002-47.998-27.002-71.006-27.002-145c0-86.006,0-87.998-15-55
			c-8.999,20-15,65-15,118.994c0,79.004,2.998,91.006,37.998,161.006c44.004,90,112.002,156.997,190,186.997
			C1953.349,775.913,2061.347,775.913,2117.344,750.913z M2133.349,500.908c77.998-50,112.002-148.994,82.998-247.998
			c-34.004-117.002-161.001-200.996-261.001-173.994c-65,17.998-100,45.996-127.998,101.992
			c-78.999,159.004,31.997,349.004,203.999,349.004C2076.347,529.912,2096.347,523.916,2133.349,500.908z"/>
		<path d="M1959.345,459.912c-101.997-55-125.996-204.004-43.999-285.996c150-150,376.997,81.992,240.005,245.996
			C2103.349,481.914,2029.345,496.914,1959.345,459.912z"/>
		<path d="M1097.349,58.916c-53.003-63.008-18.999-149.004,58.999-149.004c48.999,0,85,39.004,85,92.002
			C1241.348,84.912,1149.346,121.914,1097.349,58.916z"/>
		<path d="M3415.351,1089.912c-48.008-18.999-70.996-102.002-40.996-141.001c35-46.001,87.988-50,127.988-10
			C3570.351,1006.914,3501.347,1125.913,3415.351,1089.912z"/>
		<path d="M3234.355,1071.914c-20-12.002-255.01-1092.998-241.006-1109.004c5.996-7.998,33.994-12.998,75-12.998
			c56.006,0,66.006,2.998,70,20c7.002,27.002,20,25,27.002-5c4.004-15.996,20-32.002,40.996-42.002
			c28.008-13.994,38.008-13.994,65-2.998c64.004,27.002,77.002,117.002,22.002,160c-26.006,20.996-51.006,22.002-97.002,5
			c-14.004-5-10,2.998,13.008,24.004c25,23.994,40.996,30.996,70.996,30.996c29.004,0,40.996,5,45,17.998
			c10.996,36.006,145.996,683.003,145.996,701.001c0,13.003-14.004,23.999-45,36.001c-50.996,18.999-70.996,47.002-80.996,116.001
			c-4.004,23.999-10.996,50-17.002,56.997C3318.349,1080.913,3253.349,1083.911,3234.355,1071.914z M3296.347,992.91
			c10.996-55,49.004-115.996,85-135c19.004-10,34.004-23.999,33.008-30.996c-3.008-20-103.008-497.998-119.004-570
			c-14.004-61.006-18.008-67.002-40-67.002c-59.004,0-105-42.002-139.004-127.002c-20-47.002-27.998-57.998-46.992-57.998
			c-17.012,0-22.012,5-21.006,20c1.006,10.996,48.994,235.996,107.002,499.004c57.998,263.994,105.996,482.998,105.996,487.998
			C3261.347,1032.91,3291.347,1016.914,3296.347,992.91z"/>
	</g>
</g>
</svg>
