<?xml version="1.0" encoding="UTF-8"?>
<svg preserveAspectRatio="none" version="1.1" viewBox="0 0 1440 560" xmlns="http://www.w3.org/2000/svg" xmlns:xlink="http://www.w3.org/1999/xlink">
<g mask="url(#d)">
<rect width="1440" height="560" fill="#0e2a47"/>
<use transform="translate(0)" fill="#0f457b" xlink:href="#c"/>
<use transform="translate(638)" fill="#0f457b" xlink:href="#c"/>
<use transform="translate(1276)" fill="#0f457b" xlink:href="#c"/>
</g>
<defs>
<mask id="d">
<rect width="1440" height="560" fill="#fff"/>
</mask>
<g id="b">
<path d="M15.828 7.44l-1.288-1.3H6.996C6.352 5.004 5.141 4.237 3.752 4.24 1.681 4.236 0.004 5.93 0 8.016c0.005 2.091 1.681 3.785 3.751 3.788 1.386-0.002 2.594-0.767 3.24-1.9h1.517l1.202-1.202 0.92 0.92 0.882-0.883 0.908 0.906 0.919-0.919 0.919 0.919 1.57-1.568c0.226-0.236 0.233-0.402 0-0.637zM2.109 9.009c-0.553-0.005-0.998-0.455-0.993-1.006-0.005-0.558 0.44-1.008 0.993-1.005 0.544-0.003 0.989 0.447 0.993 1.005-0.004 0.55-0.449 1-0.993 1.006z"/>
</g>
<g id="a">
<path d="m13.851 6.028c0-3.226-2.624-5.85-5.85-5.85s-5.85 2.624-5.85 5.85h-1.484v9.3h14.666v-9.3h-1.482zm-9.301 0c0-1.902 1.548-3.45 3.45-3.45s3.451 1.547 3.451 3.45h-6.9zm4.233 4.389v2.674h-1.585v-2.675c-0.331-0.244-0.547-0.635-0.547-1.079 0-0.74 0.6-1.34 1.341-1.34s1.34 0.6 1.34 1.34c0 0.443-0.216 0.835-0.547 1.08z"/>
</g>
<g id="c">
<use transform="translate(0) scale(2.2)" fill="#0f457b" xlink:href="#b"/>
<use transform="translate(0 63.8) scale(2.2)" fill="#0f457b" xlink:href="#a"/>
<use transform="translate(0 127.6) scale(2.2)" fill="#0f457b" xlink:href="#b"/>
<use transform="translate(0 191.4) scale(2.2)" fill="#0f457b" xlink:href="#a"/>
<use transform="translate(0 255.2) scale(2.2)" fill="#0f457b" xlink:href="#b"/>
<use transform="translate(0 319) scale(2.2)" fill="#0f457b" xlink:href="#a"/>
<use transform="translate(0 382.8) scale(2.2)" fill="#0f457b" xlink:href="#b"/>
<use transform="translate(0 446.6) scale(2.2)" fill="#0f457b" xlink:href="#a"/>
<use transform="translate(0 510.4) scale(2.2)" fill="#0f457b" xlink:href="#b"/>
<use transform="translate(63.8) scale(2.2)" fill="#0f457b" xlink:href="#a"/>
<use transform="translate(63.8 63.8) scale(2.2)" fill="#0f457b" xlink:href="#b"/>
<use transform="translate(63.8 127.6) scale(2.2)" fill="#0f457b" xlink:href="#a"/>
<use transform="translate(63.8 191.4) scale(2.2)" fill="#0f457b" xlink:href="#b"/>
<use transform="translate(63.8 255.2) scale(2.2)" fill="#0f457b" xlink:href="#a"/>
<use transform="translate(63.8 319) scale(2.2)" fill="#0f457b" xlink:href="#b"/>
<use transform="translate(63.8 382.8) scale(2.2)" fill="#0f457b" xlink:href="#a"/>
<use transform="translate(63.8 446.6) scale(2.2)" fill="#0f457b" xlink:href="#b"/>
<use transform="translate(63.8 510.4) scale(2.2)" fill="#0f457b" xlink:href="#a"/>
<use transform="translate(127.6) scale(2.2)" fill="#0f457b" xlink:href="#b"/>
<use transform="translate(127.6 63.8) scale(2.2)" fill="#0f457b" xlink:href="#a"/>
<use transform="translate(127.6 127.6) scale(2.2)" fill="#0f457b" xlink:href="#b"/>
<use transform="translate(127.6 191.4) scale(2.2)" fill="#0f457b" xlink:href="#a"/>
<use transform="translate(127.6 255.2) scale(2.2)" fill="#0f457b" xlink:href="#b"/>
<use transform="translate(127.6 319) scale(2.2)" fill="#0f457b" xlink:href="#a"/>
<use transform="translate(127.6 382.8) scale(2.2)" fill="#0f457b" xlink:href="#b"/>
<use transform="translate(127.6 446.6) scale(2.2)" fill="#0f457b" xlink:href="#a"/>
<use transform="translate(127.6 510.4) scale(2.2)" fill="#0f457b" xlink:href="#b"/>
<use transform="translate(191.4) scale(2.2)" fill="#0f457b" xlink:href="#a"/>
<use transform="translate(191.4 63.8) scale(2.2)" fill="#0f457b" xlink:href="#b"/>
<use transform="translate(191.4 127.6) scale(2.2)" fill="#0f457b" xlink:href="#a"/>
<use transform="translate(191.4 191.4) scale(2.2)" fill="#0f457b" xlink:href="#b"/>
<use transform="translate(191.4 255.2) scale(2.2)" fill="#0f457b" xlink:href="#a"/>
<use transform="translate(191.4 319) scale(2.2)" fill="#0f457b" xlink:href="#b"/>
<use transform="translate(191.4 382.8) scale(2.2)" fill="#0f457b" xlink:href="#a"/>
<use transform="translate(191.4 446.6) scale(2.2)" fill="#0f457b" xlink:href="#b"/>
<use transform="translate(191.4 510.4) scale(2.2)" fill="#0f457b" xlink:href="#a"/>
<use transform="translate(255.2) scale(2.2)" fill="#0f457b" xlink:href="#b"/>
<use transform="translate(255.2 63.8) scale(2.2)" fill="#0f457b" xlink:href="#a"/>
<use transform="translate(255.2 127.6) scale(2.2)" fill="#0f457b" xlink:href="#b"/>
<use transform="translate(255.2 191.4) scale(2.2)" fill="#0f457b" xlink:href="#a"/>
<use transform="translate(255.2 255.2) scale(2.2)" fill="#0f457b" xlink:href="#b"/>
<use transform="translate(255.2 319) scale(2.2)" fill="#0f457b" xlink:href="#a"/>
<use transform="translate(255.2 382.8) scale(2.2)" fill="#0f457b" xlink:href="#b"/>
<use transform="translate(255.2 446.6) scale(2.2)" fill="#0f457b" xlink:href="#a"/>
<use transform="translate(255.2 510.4) scale(2.2)" fill="#0f457b" xlink:href="#b"/>
<use transform="translate(319) scale(2.2)" fill="#0f457b" xlink:href="#a"/>
<use transform="translate(319 63.8) scale(2.2)" fill="#0f457b" xlink:href="#b"/>
<use transform="translate(319 127.6) scale(2.2)" fill="#0f457b" xlink:href="#a"/>
<use transform="translate(319 191.4) scale(2.2)" fill="#0f457b" xlink:href="#b"/>
<use transform="translate(319 255.2) scale(2.2)" fill="#0f457b" xlink:href="#a"/>
<use transform="translate(319 319) scale(2.2)" fill="#0f457b" xlink:href="#b"/>
<use transform="translate(319 382.8) scale(2.2)" fill="#0f457b" xlink:href="#a"/>
<use transform="translate(319 446.6) scale(2.2)" fill="#0f457b" xlink:href="#b"/>
<use transform="translate(319 510.4) scale(2.2)" fill="#0f457b" xlink:href="#a"/>
<use transform="translate(382.8) scale(2.2)" fill="#0f457b" xlink:href="#b"/>
<use transform="translate(382.8 63.8) scale(2.2)" fill="#0f457b" xlink:href="#a"/>
<use transform="translate(382.8 127.6) scale(2.2)" fill="#0f457b" xlink:href="#b"/>
<use transform="translate(382.8 191.4) scale(2.2)" fill="#0f457b" xlink:href="#a"/>
<use transform="translate(382.8 255.2) scale(2.2)" fill="#0f457b" xlink:href="#b"/>
<use transform="translate(382.8 319) scale(2.2)" fill="#0f457b" xlink:href="#a"/>
<use transform="translate(382.8 382.8) scale(2.2)" fill="#0f457b" xlink:href="#b"/>
<use transform="translate(382.8 446.6) scale(2.2)" fill="#0f457b" xlink:href="#a"/>
<use transform="translate(382.8 510.4) scale(2.2)" fill="#0f457b" xlink:href="#b"/>
<use transform="translate(446.6) scale(2.2)" fill="#0f457b" xlink:href="#a"/>
<use transform="translate(446.6 63.8) scale(2.2)" fill="#0f457b" xlink:href="#b"/>
<use transform="translate(446.6 127.6) scale(2.2)" fill="#0f457b" xlink:href="#a"/>
<use transform="translate(446.6 191.4) scale(2.2)" fill="#0f457b" xlink:href="#b"/>
<use transform="translate(446.6 255.2) scale(2.2)" fill="#0f457b" xlink:href="#a"/>
<use transform="translate(446.6 319) scale(2.2)" fill="#0f457b" xlink:href="#b"/>
<use transform="translate(446.6 382.8) scale(2.2)" fill="#0f457b" xlink:href="#a"/>
<use transform="translate(446.6 446.6) scale(2.2)" fill="#0f457b" xlink:href="#b"/>
<use transform="translate(446.6 510.4) scale(2.2)" fill="#0f457b" xlink:href="#a"/>
<use transform="translate(510.4) scale(2.2)" fill="#0f457b" xlink:href="#b"/>
<use transform="translate(510.4 63.8) scale(2.2)" fill="#0f457b" xlink:href="#a"/>
<use transform="translate(510.4 127.6) scale(2.2)" fill="#0f457b" xlink:href="#b"/>
<use transform="translate(510.4 191.4) scale(2.2)" fill="#0f457b" xlink:href="#a"/>
<use transform="translate(510.4 255.2) scale(2.2)" fill="#0f457b" xlink:href="#b"/>
<use transform="translate(510.4 319) scale(2.2)" fill="#0f457b" xlink:href="#a"/>
<use transform="translate(510.4 382.8) scale(2.2)" fill="#0f457b" xlink:href="#b"/>
<use transform="translate(510.4 446.6) scale(2.2)" fill="#0f457b" xlink:href="#a"/>
<use transform="translate(510.4 510.4) scale(2.2)" fill="#0f457b" xlink:href="#b"/>
<use transform="translate(574.2) scale(2.2)" fill="#0f457b" xlink:href="#a"/>
<use transform="translate(574.2 63.8) scale(2.2)" fill="#0f457b" xlink:href="#b"/>
<use transform="translate(574.2 127.6) scale(2.2)" fill="#0f457b" xlink:href="#a"/>
<use transform="translate(574.2 191.4) scale(2.2)" fill="#0f457b" xlink:href="#b"/>
<use transform="translate(574.2 255.2) scale(2.2)" fill="#0f457b" xlink:href="#a"/>
<use transform="translate(574.2 319) scale(2.2)" fill="#0f457b" xlink:href="#b"/>
<use transform="translate(574.2 382.8) scale(2.2)" fill="#0f457b" xlink:href="#a"/>
<use transform="translate(574.2 446.6) scale(2.2)" fill="#0f457b" xlink:href="#b"/>
<use transform="translate(574.2 510.4) scale(2.2)" fill="#0f457b" xlink:href="#a"/>
</g>
</defs>
</svg>
