<?xml version="1.0" encoding="utf-8"?>
<!-- Generator: Adobe Illustrator 16.0.0, SVG Export Plug-In . SVG Version: 6.00 Build 0)  -->
<!DOCTYPE svg PUBLIC "-//W3C//DTD SVG 1.1//EN" "http://www.w3.org/Graphics/SVG/1.1/DTD/svg11.dtd">
<svg version="1.1" id="Camada_1" xmlns="http://www.w3.org/2000/svg" xmlns:xlink="http://www.w3.org/1999/xlink" x="0px" y="0px"
	 width="415.438px" height="230px" viewBox="0 0 415.438 230" enable-background="new 0 0 415.438 230" xml:space="preserve">
<g id="Camada_3">
</g>
<g id="Camada_1_1_">
	<path fill="#FFFFFF" d="M109.125,48l-18.194,87.625c0,0-32.943,0.497-35.806,3.25c-2.863,2.753-9,12.625-0.25,23.5
		c5.563,6.914,7.356,7.137,7.356,7.137s-9.293,22.639,11.519,28.363c11.125,3.061,15.893-6.85,20.248-9.871
		c1.627-1.129,157.096,0.75,157.096,0.75l8.848-32.326L288,188l48.09,0.5L364,62.25L344.539,43H299l-13-9l-4,15.375l-10.875,3.5
		L249.875,33h-5L242.5,46.125L109.125,48z"/>
</g>
<g id="Camada_2">
	<g transform="translate(0.000000,230.000000) scale(0.100000,-0.100000)">
		<path fill="#FFFFFF" d="M3368.469,14.043c48.984,10.996,116.992,34.004,151.992,50.996c79.004,39.004,166.992,128.008,200,203.008
			c14.004,30.996,111.992,410,219.004,842.988c107.988,432.998,200,802.002,205.996,819.004c15,46.006,11.992,72.002-15.996,147.998
			c-44.004,112.998-107.012,162.002-254.004,197.002c-71.992,17.998-301.865,13.525-301.865,13.525s-2663.594,6.797-2758.594-9.199
			c-178.994-32.002-268.994-89.004-320-206.006c-28.994-63.994-50.996-140.996-215-735C208,1077.373,138,825.361,125.002,778.369
			C33,452.373,0.002,326.357,0.002,301.357c0-35,31.006-120,60-167.988c32.002-52.012,75-80,164.004-109.004L303-1.631
			 M347.004,157.373c-85,11.992-135,36.992-159.004,81.992c-37.998,66.992-26.992,114.004,212.002,937.998
			c122.002,420,231.006,784.004,242.002,808.008c27.002,57.988,84.004,105,155,128.994
			c55.996,17.998,102.002,18.994,1282.998,23.994c2270,9.004,1607.451,4.678,1707.451-4.326
			c62.011-5.996,112.011-16.992,136.015-28.994c95.996-48.994,96.992-117.998,5.996-476.006
			c-35.996-142.988-119.004-473.994-184.004-734.99c-65.996-260.996-129.004-494.004-140-517.012
			c-40.996-88.984-136.992-166.992-253.008-205.996l-61.992-21.992"/>
	</g>
</g>
<g transform="translate(0.000000,176.000000) scale(0.100000,-0.100000)">
	<path d="M2388.381,1394.316l-2.998-72.998l-675-5l-674.004-5l-87.998-430c-47.998-235.996-90-435-92.002-442.002
		c-3.994-10-40.996-12.998-142.998-12.998c-130.996,0-140-2.002-187.998-27.998c-61.006-32.998-75-59.004-75-142.998
		c0-57.002,3.994-71.006,28.994-106.006c16.006-22.002,41.006-48.994,56.006-60.996c25-20,25.996-22.998,15.996-74.004
		c-13.994-78.994,1.006-135.996,52.002-193.994c22.002-26.006,55.996-53.008,74.004-60c75.996-32.002,173.994-4.004,215.996,60.996
		c15.996,27.002,27.002,34.004,42.002,30c20.996-5,1555.996-7.002,1562.002-2.002c0.996,2.002,17.002,72.002,35,155
		c17.002,85,35.996,151.006,42.002,149.004c5-2.002,63.994-70,130.996-152.998l120.996-149.004h264.004h265l10.996,55
		c7.012,30,37.012,177.002,69.004,325c30.996,149.004,88.008,415.996,125.996,595l70,325l-107.988,102.002l-108.008,102.002
		l-237.998,0.996h-237.998l-60,57.002c-68.008,65-71.006,63.994-89.004-27.002c-27.002-132.002-25.996-130-74.004-130
		c-46.992,0-55,5.996-195.996,162.998c-37.998,42.002-47.002,47.002-85.996,47.002h-43.008L2388.381,1394.316z M2572.385,1300.322
		c57.002-64.004,105-120,105.996-125c2.002-5-287.998-9.004-715-9.004h-717.998l-57.998,47.998l-59.004,47.002l649.004,5l647.998,5
		l2.998,72.998C2432.385,1446.318,2446.379,1442.314,2572.385,1300.322z M2974.387,1257.314
		c95-95.996,125.996-133.994,121.992-147.998c-2.988-10-65.996-273.994-140.996-587.998
		c-74.004-314.004-137.002-574.004-137.998-579.004c-5-15-227.002,264.004-227.002,284.004c0,29.004,32.002,174.004,40.996,184.004
		c18.008,20,26.006-5,17.002-49.004l-10-45.996l72.002-93.008c85-112.998,107.002-132.998,120.996-118.994
		c12.002,12.002,118.008,475,119.004,518.994c0,18.008-7.998,38.008-20,49.004c-10.996,10-20,24.004-20,32.002
		c0,15.996,5,15.996,30,2.998c12.002-7.002,20.996-5.996,27.998,2.998c15,17.998,94.004,376.006,87.002,397.002
		c-6.992,20.996-177.998,180-194.004,180c-5.996,0-15.996-12.002-21.992-27.002c-7.002-18.994-13.008-22.998-21.006-15
		c-7.002,7.002-7.002,29.004,2.998,76.006c7.002,35.996,15,65.996,19.004,65.996
		C2843.381,1386.318,2904.387,1328.32,2974.387,1257.314z M3475.383,1236.318l70-70h-205h-205.996l-68.008,69.004
		c-68.994,68.994-68.994,68.994-40,72.998c16.006,2.002,108.008,2.002,204.004,0l175-2.998L3475.383,1236.318z M1139.377,1189.316
		c31.006-25.996,59.004-48.994,64.004-52.998c4.004-2.998-27.998-165.996-72.002-360.996
		c-42.998-194.004-82.002-369.004-85.996-386.006c-7.002-32.998-25-45.996-25-17.998c0,19.004-57.002,55-87.002,55
		c-15.996,0-22.998,5.996-22.998,17.998c0,19.004,147.002,757.002,155,780C1072.385,1243.32,1079.377,1240.322,1139.377,1189.316z
		 M2827.385,1164.316c23.994-22.998,42.998-45.996,42.998-50.996c0-4.004-20.996-7.002-47.002-5
		c-42.998,2.998-47.998,5.996-50.996,27.998c-2.002,14.004-12.998,35-25,47.998l-20,22.002h27.998
		C2776.379,1206.318,2797.385,1194.316,2827.385,1164.316z M2710.383,1091.318c0-25-239.004-1159.004-250-1182.998l-10-22.998
		l-725,0.996c-397.998,0.996-727.002,5-730,10c-5,7.002,232.002,1080,240,1087.998c2.002,2.002,5.996-5.996,10-17.002
		c8.994-27.998,52.998-60.996,82.002-60.996c38.994,0,82.998,50.996,82.998,95.996c0,72.002-72.998,109.004-135,68.008
		c-25-16.006-31.006-10-19.004,20c6.006,13.994,79.004,15.996,730,15.996C2613.381,1106.318,2710.383,1104.316,2710.383,1091.318z
		 M3570.383,1094.316c0-35.996-255-1193.994-264.004-1200c-5.996-3.994-101.992-7.998-213.994-7.998
		c-155,0-204.004,2.998-207.998,12.998c-4.004,10,126.992,609.004,230,1052.002c14.004,60.996,27.998,120,30.996,132.998
		c5,22.002,5.996,22.002,215,22.002C3514.387,1106.318,3570.383,1103.32,3570.383,1094.316z M2893.381,1049.316
		c2.002-5-23.994-135.996-58.994-292.998s-63.008-285.996-64.004-287.002c0-7.002-130-2.002-130,4.004
		c0,17.998,112.002,540.996,120,560.996c7.998,19.004,17.002,22.002,69.004,22.002
		C2862.385,1056.318,2891.379,1053.32,2893.381,1049.316z M961.379,366.318c37.998-20.996,20-130.996-25-150.996
		c-20.996-10-28.994-8.008-52.002,10c-20,15.996-40.996,20.996-86.992,20.996c-59.004,0-60,0-124.004-60
		c-45.996-44.004-70.996-60-92.002-60c-45,0-90.996,62.002-90.996,124.004c0,53.994,15.996,82.998,57.002,105
		c33.994,17.998,57.998,20,215.996,20.996C868.381,376.318,949.377,372.315,961.379,366.318z M803.381,190.322
		c15-15-5.996-34.004-32.002-28.008c-32.002,8.008-35,10-25.996,23.008C752.385,197.315,793.381,200.322,803.381,190.322z
		 M996.379,169.316c-2.998-10-12.002-48.994-20.996-87.998c-27.998-130.996-26.006-125-40-77.002
		c-14.004,46.006-62.002,122.002-76.006,122.002c-5,0-8.994,10.996-8.994,25c0,25,13.994,32.998,25,15c10-15.996,80.996-12.002,95,5
		C987.385,191.318,1003.381,190.322,996.379,169.316z M828.381,89.316c59.004-43.994,79.004-142.998,44.004-212.998
		c-53.008-105.996-203.008-105.996-259.004,0c-37.002,69.004-25,157.998,27.002,205C689.377,126.318,774.377,129.316,828.381,89.316
		z"/>
	<path d="M1463.381,1059.316c-7.002-2.002-15-20.996-19.004-40.996c-13.994-77.998-61.992-132.002-117.998-132.002
		c-17.002,0-35.996-4.004-42.002-7.998c-12.998-7.998-176.992-722.998-171.992-749.004c1.992-8.994,18.994-20.996,37.998-27.002
		c65.996-20,100-58.994,100-110.996c0-17.002,5-35.996,12.002-42.998c8.994-9.004,143.994-12.002,545-12.002h532.998l10,22.998
		c5,12.002,60,259.004,120.996,549.004c91.006,430.996,109.004,530.996,99.004,542.998c-10.996,12.998-84.004,15-554.004,14.004
		C1719.377,1065.322,1470.383,1062.314,1463.381,1059.316z M2520.383,994.316c0-30-210-992.002-217.002-998.994
		c-5-5-230-8.008-502.998-7.002l-492.998,2.998l-14.004,42.002c-15,42.998-80.996,112.998-107.998,112.998
		c-7.998,0-15,7.998-15,17.998c0,9.004,32.002,162.002,72.002,339.004l71.992,322.002l44.004,10.996
		c59.004,15,107.998,64.004,124.004,124.004l11.992,45.996h513.008C2411.379,1006.318,2520.383,1003.32,2520.383,994.316z"/>
	<path d="M1867.385,916.318c-133.008-22.998-262.002-125-323.008-254.004c-90.996-193.994-60.996-391.992,82.002-531.992
		c87.998-88.008,144.004-108.008,294.004-109.004c102.002,0,120.996,2.998,164.004,24.004
		c68.994,33.994,155,122.998,192.998,200.996c17.002,35.996,38.994,102.998,48.994,150c14.004,72.002,15,95.996,5,159.004
		c-18.994,123.994-72.998,220.996-158.994,286.992C2090.383,904.316,1969.377,934.316,1867.385,916.318z M2087.385,838.32
		c48.994-25,108.994-76.006,123.994-104.004c7.002-12.002-5-7.002-35,16.006c-160,121.992-407.998,75-523.994-99.004
		c-56.006-85-76.006-150-76.006-250c0-57.002,6.006-105.996,16.006-132.002c22.998-63.994,2.998-42.002-23.008,25
		c-31.992,80-31.992,214.004,0,294.004c47.002,120,129.004,208.994,237.002,253.994c51.006,21.006,71.006,24.004,149.004,21.006
		C2023.381,861.318,2055.383,854.316,2087.385,838.32z M2086.379,747.314c94.004-42.998,169.004-141.992,180-238.994l5-47.002
		l-25.996,50c-125.996,242.998-442.998,225-562.998-32.998c-22.002-47.998-27.002-71.006-27.002-145c0-86.006,0-87.998-15-55
		c-9.004,20-15,65-15,118.994c0,79.004,2.998,91.006,37.998,161.006c44.004,90,112.002,157.002,190,187.002
		C1922.385,772.314,2030.383,772.314,2086.379,747.314z M2102.385,497.314c77.998-50,112.002-148.994,82.998-247.998
		c-34.004-117.002-161.006-200.996-261.006-173.994c-65,17.998-100,45.996-127.998,101.992
		c-78.994,159.004,32.002,349.004,204.004,349.004C2045.383,526.318,2065.383,520.322,2102.385,497.314z"/>
	<path d="M1928.381,456.318c-102.002-55-125.996-204.004-44.004-285.996c150-150,377.002,81.992,240.01,245.996
		C2072.385,478.32,1998.381,493.32,1928.381,456.318z"/>
	<path d="M1066.379,55.322c-52.998-63.008-18.994-149.004,59.004-149.004c48.994,0,85,39.004,85,92.002
		C1210.383,81.318,1118.381,118.32,1066.379,55.322z"/>
	<path d="M3384.387,1086.318c-48.008-19.004-70.996-102.002-40.996-140.996c35-46.006,87.988-50,127.988-10
		C3539.387,1003.32,3470.383,1122.314,3384.387,1086.318z"/>
	<path d="M3203.391,1068.32c-20-12.002-255.01-1092.998-241.006-1109.004c5.996-7.998,33.994-12.998,75-12.998
		c56.006,0,66.006,2.998,70,20c7.002,27.002,20,25,27.002-5c4.004-15.996,20-32.002,40.996-42.002
		c28.008-13.994,38.008-13.994,65-2.998c64.004,27.002,77.002,117.002,22.002,160c-26.006,20.996-51.006,22.002-97.002,5
		c-14.004-5-10,2.998,13.008,24.004c25,23.994,40.996,30.996,70.996,30.996c29.004,0,40.996,5,45,17.998
		c10.996,36.006,145.996,682.998,145.996,701.006c0,12.998-14.004,23.994-45,35.996c-50.996,19.004-70.996,47.002-80.996,115.996
		c-4.004,24.004-10.996,50-17.002,57.002C3287.385,1077.314,3222.385,1080.322,3203.391,1068.32z M3265.383,989.316
		c10.996-55,49.004-115.996,85-135c19.004-10,34.004-23.994,33.008-30.996c-3.008-20-103.008-497.998-119.004-570
		c-14.004-61.006-18.008-67.002-40-67.002c-59.004,0-105-42.002-139.004-127.002c-20-47.002-27.998-57.998-46.992-57.998
		c-17.012,0-22.012,5-21.006,20c1.006,10.996,48.994,235.996,107.002,499.004c57.998,263.994,105.996,482.998,105.996,487.998
		C3230.383,1029.316,3260.383,1013.32,3265.383,989.316z"/>
</g>
</svg>
